{"asset":{"version":"2.0","generator":"Blockbench 5.0.7 glTF exporter"},"scenes":[{"nodes":[29],"name":"blockbench_export"}],"scene":0,"nodes":[{"translation":[-0.25,0,0],"name":"oppener-01/14","mesh":0},{"translation":[-1.1060299999999996,0,0.07193000000000005],"name":"oppener-01/14","children":[0]},{"translation":[-0.23651,0,-0.023900000000001143],"name":"oppener-02/14","mesh":1},{"translation":[-1.0791300000000001,0,0.02401000000000053],"name":"oppener-02/14","children":[1,2]},{"translation":[-0.24991999999999948,0,0.00010999999999938836],"name":"oppener-03/14","mesh":2},{"translation":[-1.0656400000000001,0,0.00010999999999938836],"name":"oppener-03/14","children":[3,4]},{"translation":[-0.2498499999999999,0,0.00021999999999877673],"name":"oppener-04/14","mesh":3},{"translation":[-1.0655700000000001,0,0.0002200000000005531],"name":"oppener-04/14","children":[5,6]},{"translation":[-0.24970999999999988,0,0.0004399999999993298],"name":"oppener-05/14","mesh":4},{"translation":[-1.06541,0,0.0004399999999993298],"name":"oppener-05/14","children":[7,8]},{"translation":[-0.24940000000000007,0,0.0008799999999986596],"name":"oppener-06/14","mesh":5},{"translation":[-1.06512,0,0.0008900000000000574],"name":"oppener-06/14","children":[9,10]},{"translation":[-0.24881,0,0.001769999999998717],"name":"oppener-07/14","mesh":6},{"translation":[-1.06452,0,0.001760000000000872],"name":"oppener-07/14","children":[11,12]},{"translation":[-0.2476100000000001,0,0.003529999999999589],"name":"oppener-08/14","mesh":7},{"translation":[-1.0633199999999998,0,0.003529999999999589],"name":"oppener-08/14","children":[13,14]},{"translation":[-0.24521999999999977,0,0.007059999999999178],"name":"oppener-09/14","mesh":8},{"translation":[-1.0609300000000004,0,0.007070000000000576],"name":"oppener-09/14","children":[15,16]},{"translation":[-0.24043000000000037,0,0.014129999999999754],"name":"oppener-10/14","mesh":9},{"translation":[-1.0561600000000002,0,0.014129999999999754],"name":"oppener-10/14","children":[17,18]},{"translation":[-0.23087999999999997,0,0.028259999999999508],"name":"oppener-11/14","mesh":10},{"translation":[-1.0465899999999992,0,0.028249999999999886],"name":"oppener-11/14","children":[19,20]},{"translation":[-0.21175999999999995,0,0.056509999999999394],"name":"oppener-12/14","mesh":11},{"translation":[-1.02747,0,0.056509999999999394],"name":"oppener-12/14","children":[21,22]},{"translation":[-0.1735099999999994,0,0.11301999999999879],"name":"oppener-13/14","mesh":12},{"translation":[-1.0960100000000006,0,-0.20884999999999998],"name":"oppener-13/14","children":[23,24]},{"translation":[-0.15000000000000036,0,0],"name":"oppener-14/14","mesh":13},{"translation":[7.63095,0,-12.70417],"name":"oppener-14/14","children":[25,26]},{"name":"pack","mesh":14},{"rotation":[0.7071067811865475,0,0,0.7071067811865476],"name":"controller","children":[27,28]}],"bufferViews":[{"buffer":0,"byteOffset":0,"byteLength":360,"target":34962,"byteStride":12},{"buffer":0,"byteOffset":360,"byteLength":360,"target":34962,"byteStride":12},{"buffer":0,"byteOffset":720,"byteLength":240,"target":34962,"byteStride":8},{"buffer":0,"byteOffset":960,"byteLength":84,"target":34963},{"buffer":0,"byteOffset":1044,"byteLength":192,"target":34962,"byteStride":12},{"buffer":0,"byteOffset":1236,"byteLength":192,"target":34962,"byteStride":12},{"buffer":0,"byteOffset":1428,"byteLength":128,"target":34962,"byteStride":8},{"buffer":0,"byteOffset":1556,"byteLength":48,"target":34963},{"buffer":0,"byteOffset":1604,"byteLength":192,"target":34962,"byteStride":12},{"buffer":0,"byteOffset":1796,"byteLength":192,"target":34962,"byteStride":12},{"buffer":0,"byteOffset":1988,"byteLength":128,"target":34962,"byteStride":8},{"buffer":0,"byteOffset":2116,"byteLength":48,"target":34963},{"buffer":0,"byteOffset":2164,"byteLength":192,"target":34962,"byteStride":12},{"buffer":0,"byteOffset":2356,"byteLength":192,"target":34962,"byteStride":12},{"buffer":0,"byteOffset":2548,"byteLength":128,"target":34962,"byteStride":8},{"buffer":0,"byteOffset":2676,"byteLength":48,"target":34963},{"buffer":0,"byteOffset":2724,"byteLength":192,"target":34962,"byteStride":12},{"buffer":0,"byteOffset":2916,"byteLength":192,"target":34962,"byteStride":12},{"buffer":0,"byteOffset":3108,"byteLength":128,"target":34962,"byteStride":8},{"buffer":0,"byteOffset":3236,"byteLength":48,"target":34963},{"buffer":0,"byteOffset":3284,"byteLength":192,"target":34962,"byteStride":12},{"buffer":0,"byteOffset":3476,"byteLength":192,"target":34962,"byteStride":12},{"buffer":0,"byteOffset":3668,"byteLength":128,"target":34962,"byteStride":8},{"buffer":0,"byteOffset":3796,"byteLength":48,"target":34963},{"buffer":0,"byteOffset":3844,"byteLength":192,"target":34962,"byteStride":12},{"buffer":0,"byteOffset":4036,"byteLength":192,"target":34962,"byteStride":12},{"buffer":0,"byteOffset":4228,"byteLength":128,"target":34962,"byteStride":8},{"buffer":0,"byteOffset":4356,"byteLength":48,"target":34963},{"buffer":0,"byteOffset":4404,"byteLength":192,"target":34962,"byteStride":12},{"buffer":0,"byteOffset":4596,"byteLength":192,"target":34962,"byteStride":12},{"buffer":0,"byteOffset":4788,"byteLength":128,"target":34962,"byteStride":8},{"buffer":0,"byteOffset":4916,"byteLength":48,"target":34963},{"buffer":0,"byteOffset":4964,"byteLength":192,"target":34962,"byteStride":12},{"buffer":0,"byteOffset":5156,"byteLength":192,"target":34962,"byteStride":12},{"buffer":0,"byteOffset":5348,"byteLength":128,"target":34962,"byteStride":8},{"buffer":0,"byteOffset":5476,"byteLength":48,"target":34963},{"buffer":0,"byteOffset":5524,"byteLength":192,"target":34962,"byteStride":12},{"buffer":0,"byteOffset":5716,"byteLength":192,"target":34962,"byteStride":12},{"buffer":0,"byteOffset":5908,"byteLength":128,"target":34962,"byteStride":8},{"buffer":0,"byteOffset":6036,"byteLength":48,"target":34963},{"buffer":0,"byteOffset":6084,"byteLength":192,"target":34962,"byteStride":12},{"buffer":0,"byteOffset":6276,"byteLength":192,"target":34962,"byteStride":12},{"buffer":0,"byteOffset":6468,"byteLength":128,"target":34962,"byteStride":8},{"buffer":0,"byteOffset":6596,"byteLength":48,"target":34963},{"buffer":0,"byteOffset":6644,"byteLength":192,"target":34962,"byteStride":12},{"buffer":0,"byteOffset":6836,"byteLength":192,"target":34962,"byteStride":12},{"buffer":0,"byteOffset":7028,"byteLength":128,"target":34962,"byteStride":8},{"buffer":0,"byteOffset":7156,"byteLength":48,"target":34963},{"buffer":0,"byteOffset":7204,"byteLength":192,"target":34962,"byteStride":12},{"buffer":0,"byteOffset":7396,"byteLength":192,"target":34962,"byteStride":12},{"buffer":0,"byteOffset":7588,"byteLength":128,"target":34962,"byteStride":8},{"buffer":0,"byteOffset":7716,"byteLength":48,"target":34963},{"buffer":0,"byteOffset":7764,"byteLength":360,"target":34962,"byteStride":12},{"buffer":0,"byteOffset":8124,"byteLength":360,"target":34962,"byteStride":12},{"buffer":0,"byteOffset":8484,"byteLength":240,"target":34962,"byteStride":8},{"buffer":0,"byteOffset":8724,"byteLength":84,"target":34963},{"buffer":0,"byteOffset":8808,"byteLength":1488,"target":34962,"byteStride":12},{"buffer":0,"byteOffset":10296,"byteLength":1488,"target":34962,"byteStride":12},{"buffer":0,"byteOffset":11784,"byteLength":992,"target":34962,"byteStride":8},{"buffer":0,"byteOffset":12776,"byteLength":360,"target":34963},{"buffer":0,"byteOffset":13136,"byteLength":48},{"buffer":0,"byteOffset":13184,"byteLength":192},{"buffer":0,"byteOffset":13376,"byteLength":40},{"buffer":0,"byteOffset":13416,"byteLength":160},{"buffer":0,"byteOffset":13576,"byteLength":36},{"buffer":0,"byteOffset":13612,"byteLength":144},{"buffer":0,"byteOffset":13756,"byteLength":36},{"buffer":0,"byteOffset":13792,"byteLength":144},{"buffer":0,"byteOffset":13936,"byteLength":28},{"buffer":0,"byteOffset":13964,"byteLength":112},{"buffer":0,"byteOffset":14076,"byteLength":28},{"buffer":0,"byteOffset":14104,"byteLength":112},{"buffer":0,"byteOffset":14216,"byteLength":28},{"buffer":0,"byteOffset":14244,"byteLength":112},{"buffer":0,"byteOffset":14356,"byteLength":24},{"buffer":0,"byteOffset":14380,"byteLength":96},{"buffer":0,"byteOffset":14476,"byteLength":24},{"buffer":0,"byteOffset":14500,"byteLength":96},{"buffer":0,"byteOffset":14596,"byteLength":28},{"buffer":0,"byteOffset":14624,"byteLength":112},{"buffer":0,"byteOffset":14736,"byteLength":24},{"buffer":0,"byteOffset":14760,"byteLength":96},{"buffer":0,"byteOffset":14856,"byteLength":28},{"buffer":0,"byteOffset":14884,"byteLength":112},{"buffer":0,"byteOffset":14996,"byteLength":8},{"buffer":0,"byteOffset":15004,"byteLength":24},{"buffer":0,"byteOffset":15028,"byteLength":24},{"buffer":0,"byteOffset":15052,"byteLength":96},{"buffer":0,"byteOffset":15148,"byteLength":20},{"buffer":0,"byteOffset":15168,"byteLength":80},{"buffer":0,"byteOffset":15248,"byteLength":12},{"buffer":0,"byteOffset":15260,"byteLength":36}],"buffers":[{"byteLength":15296,"uri":"data:application/octet-stream;base64,"}],"accessors":[{"bufferView":0,"componentType":5126,"count":30,"max":[0.2023800015449524,0.16249999403953552,1.8541699647903442],"min":[-1.0690499544143677,-0.16249999403953552,-1.3958300352096558],"type":"VEC3"},{"bufferView":1,"componentType":5126,"count":30,"max":[0,0.9995502829551697,0.2951573133468628],"min":[-0.7882343530654907,-0.9995502829551697,-0.11588069796562195],"type":"VEC3"},{"bufferView":2,"componentType":5126,"count":30,"max":[0.8609374761581421,0.0625],"min":[0,0],"type":"VEC2"},{"bufferView":3,"componentType":5123,"count":42,"max":[29],"min":[0],"type":"SCALAR"},{"bufferView":4,"componentType":5126,"count":16,"max":[0.12928999960422516,0.16249999403953552,1.9500000476837158],"min":[-1.1100000143051147,-0.16249999403953552,-1.2999999523162842],"type":"VEC3"},{"bufferView":5,"componentType":5126,"count":16,"max":[0,0.9995502829551697,-0.029986508190631866],"min":[0,-0.9995502829551697,-0.11588069796562195],"type":"VEC3"},{"bufferView":6,"componentType":5126,"count":16,"max":[0.7290181517601013,0.0625],"min":[0.06741062551736832,0],"type":"VEC2"},{"bufferView":7,"componentType":5123,"count":24,"max":[15],"min":[0],"type":"SCALAR"},{"bufferView":8,"componentType":5126,"count":16,"max":[0.10999999940395355,0.16249999403953552,1.9500000476837158],"min":[-1.0971399545669556,-0.16249999403953552,-1.2999999523162842],"type":"VEC3"},{"bufferView":9,"componentType":5126,"count":16,"max":[0,0.9995502829551697,-0.029986508190631866],"min":[0,-0.9995502829551697,-0.11588069796562195],"type":"VEC3"},{"bufferView":10,"componentType":5126,"count":16,"max":[0.6814731359481812,0.0625],"min":[0.13482125103473663,0],"type":"VEC2"},{"bufferView":11,"componentType":5123,"count":24,"max":[15],"min":[0],"type":"SCALAR"},{"bufferView":12,"componentType":5126,"count":16,"max":[0.09070999920368195,0.16249999403953552,1.9500000476837158],"min":[-1.0842900276184082,-0.16249999403953552,-1.2999999523162842],"type":"VEC3"},{"bufferView":13,"componentType":5126,"count":16,"max":[0,0.9995502829551697,-0.029986508190631866],"min":[0,-0.9995502829551697,-0.11588069796562195],"type":"VEC3"},{"bufferView":14,"componentType":5126,"count":16,"max":[0.6339287757873535,0.0625],"min":[0.20223186910152435,0],"type":"VEC2"},{"bufferView":15,"componentType":5123,"count":24,"max":[15],"min":[0],"type":"SCALAR"},{"bufferView":16,"componentType":5126,"count":16,"max":[0.07142999768257141,0.16249999403953552,1.9500000476837158],"min":[-1.071429967880249,-0.16249999403953552,-1.2999999523162842],"type":"VEC3"},{"bufferView":17,"componentType":5126,"count":16,"max":[0,0.9995502829551697,-0.029986508190631866],"min":[0,-0.9995502829551697,-0.11588069796562195],"type":"VEC3"},{"bufferView":18,"componentType":5126,"count":16,"max":[0.5863837599754333,0.0625],"min":[0.2696431279182434,0],"type":"VEC2"},{"bufferView":19,"componentType":5123,"count":24,"max":[15],"min":[0],"type":"SCALAR"},{"bufferView":20,"componentType":5126,"count":16,"max":[0.0521400012075901,0.16249999403953552,1.9500000476837158],"min":[-1.0585700273513794,-0.16249999403953552,-1.2999999523162842],"type":"VEC3"},{"bufferView":21,"componentType":5126,"count":16,"max":[0,0.9995502829551697,-0.029986508190631866],"min":[0,-0.9995502829551697,-0.11588069796562195],"type":"VEC3"},{"bufferView":22,"componentType":5126,"count":16,"max":[0.5388393998146057,0.0625],"min":[0.33705374598503113,0],"type":"VEC2"},{"bufferView":23,"componentType":5123,"count":24,"max":[15],"min":[0],"type":"SCALAR"},{"bufferView":24,"componentType":5126,"count":16,"max":[0.03285999968647957,0.16249999403953552,1.9500000476837158],"min":[-1.0457099676132202,-0.16249999403953552,-1.2999999523162842],"type":"VEC3"},{"bufferView":25,"componentType":5126,"count":16,"max":[0,0.9995502829551697,-0.029986508190631866],"min":[0,-0.9995502829551697,-0.11588069796562195],"type":"VEC3"},{"bufferView":26,"componentType":5126,"count":16,"max":[0.49129438400268555,0.0625],"min":[0.40446436405181885,0],"type":"VEC2"},{"bufferView":27,"componentType":5123,"count":24,"max":[15],"min":[0],"type":"SCALAR"},{"bufferView":28,"componentType":5126,"count":16,"max":[0.0457100011408329,0.16249999403953552,1.9500000476837158],"min":[-1.0328600406646729,-0.16249999403953552,-1.2999999523162842],"type":"VEC3"},{"bufferView":29,"componentType":5126,"count":16,"max":[0,0.9995502829551697,-0.029986508190631866],"min":[0,-0.9995502829551697,-0.11588069796562195],"type":"VEC3"},{"bufferView":30,"componentType":5126,"count":16,"max":[0.5392856001853943,0.0625],"min":[0.3962056338787079,0],"type":"VEC2"},{"bufferView":31,"componentType":5123,"count":24,"max":[15],"min":[0],"type":"SCALAR"},{"bufferView":32,"componentType":5126,"count":16,"max":[0.058570001274347305,0.16249999403953552,1.9500000476837158],"min":[-1.0521399974822998,-0.16249999403953552,-1.2999999523162842],"type":"VEC3"},{"bufferView":33,"componentType":5126,"count":16,"max":[0,0.9995502829551697,-0.029986508190631866],"min":[0,-0.9995502829551697,-0.11588069796562195],"type":"VEC3"},{"bufferView":34,"componentType":5126,"count":16,"max":[0.6066962480545044,0.0625],"min":[0.3486606180667877,0],"type":"VEC2"},{"bufferView":35,"componentType":5123,"count":24,"max":[15],"min":[0],"type":"SCALAR"},{"bufferView":36,"componentType":5126,"count":16,"max":[0.07142999768257141,0.16249999403953552,1.9500000476837158],"min":[-1.071429967880249,-0.16249999403953552,-1.2999999523162842],"type":"VEC3"},{"bufferView":37,"componentType":5126,"count":16,"max":[0,0.9995502829551697,-0.029986508190631866],"min":[0,-0.9995502829551697,-0.11588069796562195],"type":"VEC3"},{"bufferView":38,"componentType":5126,"count":16,"max":[0.6741068959236145,0.0625],"min":[0.3011162579059601,0],"type":"VEC2"},{"bufferView":39,"componentType":5123,"count":24,"max":[15],"min":[0],"type":"SCALAR"},{"bufferView":40,"componentType":5126,"count":16,"max":[0.08428999781608582,0.16249999403953552,1.9500000476837158],"min":[-1.0907100439071655,-0.16249999403953552,-1.2999999523162842],"type":"VEC3"},{"bufferView":41,"componentType":5126,"count":16,"max":[0,0.9995502829551697,-0.029986508190631866],"min":[0,-0.9995502829551697,-0.11588069796562195],"type":"VEC3"},{"bufferView":42,"componentType":5126,"count":16,"max":[0.7415181398391724,0.0625],"min":[0.2535712420940399,0],"type":"VEC2"},{"bufferView":43,"componentType":5123,"count":24,"max":[15],"min":[0],"type":"SCALAR"},{"bufferView":44,"componentType":5126,"count":16,"max":[0.09713999927043915,0.16249999403953552,1.9500000476837158],"min":[-1.1100000143051147,-0.16249999403953552,-1.2999999523162842],"type":"VEC3"},{"bufferView":45,"componentType":5126,"count":16,"max":[0,0.9995502829551697,-0.029986508190631866],"min":[0,-0.9995502829551697,-0.11588069796562195],"type":"VEC3"},{"bufferView":46,"componentType":5126,"count":16,"max":[0.8089287281036377,0.0625],"min":[0.20602688193321228,0],"type":"VEC2"},{"bufferView":47,"componentType":5123,"count":24,"max":[15],"min":[0],"type":"SCALAR"},{"bufferView":48,"componentType":5126,"count":16,"max":[0.10999999940395355,0.16249999403953552,1.9500000476837158],"min":[-1.129289984703064,-0.16249999403953552,-1.2999999523162842],"type":"VEC3"},{"bufferView":49,"componentType":5126,"count":16,"max":[0,0.9995502829551697,-0.029986508190631866],"min":[0,-0.9995502829551697,-0.11588069796562195],"type":"VEC3"},{"bufferView":50,"componentType":5126,"count":16,"max":[0.8763393759727478,0.0625],"min":[0.1584818810224533,0],"type":"VEC2"},{"bufferView":51,"componentType":5123,"count":24,"max":[15],"min":[0],"type":"SCALAR"},{"bufferView":52,"componentType":5126,"count":30,"max":[0.06904999911785126,0.16249999403953552,1.8541699647903442],"min":[-1.2023799419403076,-0.16249999403953552,-1.3958300352096558],"type":"VEC3"},{"bufferView":53,"componentType":5126,"count":30,"max":[0.7882343530654907,0.9995502829551697,0.2951573133468628],"min":[0,-0.9995502829551697,-0.11588069796562195],"type":"VEC3"},{"bufferView":54,"componentType":5126,"count":30,"max":[0.9437500238418579,0.0625],"min":[0.0625,0],"type":"VEC2"},{"bufferView":55,"componentType":5123,"count":42,"max":[29],"min":[0],"type":"SCALAR"},{"bufferView":56,"componentType":5126,"count":124,"max":[7.550000190734863,0.3499999940395355,14.100000381469727],"min":[-7.550000190734863,-0.3499999940395355,-10.850000381469727],"type":"VEC3"},{"bufferView":57,"componentType":5126,"count":124,"max":[1,1,0.7035801410675049],"min":[-1,-1,-0.7035801410675049],"type":"VEC3"},{"bufferView":58,"componentType":5126,"count":124,"max":[0.971875011920929,1.2625000476837158],"min":[0,0],"type":"VEC2"},{"bufferView":59,"componentType":5123,"count":180,"max":[123],"min":[0],"type":"SCALAR"},{"bufferView":60,"componentType":5126,"count":12,"max":[0.708329975605011],"min":[0],"type":"SCALAR"},{"bufferView":61,"componentType":5126,"count":12,"max":[0,0,0.2798290252685547,1],"min":[0,0,-0.44228869676589966,0.8968727588653564],"type":"VEC4"},{"bufferView":62,"componentType":5126,"count":10,"max":[0.708329975605011],"min":[0],"type":"SCALAR"},{"bufferView":63,"componentType":5126,"count":10,"max":[0,0,0.15212339162826538,1],"min":[0,0,-0.4617486000061035,0.8870108127593994],"type":"VEC4"},{"bufferView":64,"componentType":5126,"count":9,"max":[0.708329975605011],"min":[0],"type":"SCALAR"},{"bufferView":65,"componentType":5126,"count":9,"max":[0,0,0.1736481785774231,1],"min":[0,0,-0.5187732577323914,0.8549118638038635],"type":"VEC4"},{"bufferView":66,"componentType":5126,"count":9,"max":[0.708329975605011],"min":[0],"type":"SCALAR"},{"bufferView":67,"componentType":5126,"count":9,"max":[0,0,0.15212339162826538,1],"min":[0,0,-0.5555702447891235,0.8314695954322815],"type":"VEC4"},{"bufferView":68,"componentType":5126,"count":7,"max":[0.4166699945926666],"min":[0],"type":"SCALAR"},{"bufferView":69,"componentType":5126,"count":7,"max":[0,0,0,1],"min":[0,0,-0.5735764503479004,0.8191520571708679],"type":"VEC4"},{"bufferView":70,"componentType":5126,"count":7,"max":[0.4583300054073334],"min":[0],"type":"SCALAR"},{"bufferView":71,"componentType":5126,"count":7,"max":[0,0,0,1],"min":[0,0,-0.5,0.8660253882408142],"type":"VEC4"},{"bufferView":72,"componentType":5126,"count":7,"max":[0.5],"min":[0],"type":"SCALAR"},{"bufferView":73,"componentType":5126,"count":7,"max":[0,0,0.04361938685178757,1],"min":[0,0,-0.591309666633606,0.8064445853233337],"type":"VEC4"},{"bufferView":74,"componentType":5126,"count":6,"max":[0.5],"min":[0],"type":"SCALAR"},{"bufferView":75,"componentType":5126,"count":6,"max":[0,0,0,1],"min":[0,0,-0.537299633026123,0.8433914184570312],"type":"VEC4"},{"bufferView":76,"componentType":5126,"count":6,"max":[0.541670024394989],"min":[0],"type":"SCALAR"},{"bufferView":77,"componentType":5126,"count":6,"max":[0,0,0.06540312618017197,1],"min":[0,0,-0.5555702447891235,0.8314695954322815],"type":"VEC4"},{"bufferView":78,"componentType":5126,"count":7,"max":[0.625],"min":[0],"type":"SCALAR"},{"bufferView":79,"componentType":5126,"count":7,"max":[0,0,0,1],"min":[0,0,-0.537299633026123,0.8433914184570312],"type":"VEC4"},{"bufferView":80,"componentType":5126,"count":6,"max":[0.625],"min":[0],"type":"SCALAR"},{"bufferView":81,"componentType":5126,"count":6,"max":[0,0,0,1],"min":[0,0,-0.44228869676589966,0.8968727588653564],"type":"VEC4"},{"bufferView":82,"componentType":5126,"count":7,"max":[0.708329975605011],"min":[0],"type":"SCALAR"},{"bufferView":83,"componentType":5126,"count":7,"max":[0,0,0,1],"min":[0,0,-0.5555702447891235,0.8314695954322815],"type":"VEC4"},{"bufferView":84,"componentType":5126,"count":2,"max":[0.666670024394989],"min":[0],"type":"SCALAR"},{"bufferView":85,"componentType":5126,"count":2,"max":[-1.0274699926376343,0,0.05651000142097473],"min":[-1.0274699926376343,0,0.05651000142097473],"type":"VEC3"},{"bufferView":86,"componentType":5126,"count":6,"max":[0.708329975605011],"min":[0],"type":"SCALAR"},{"bufferView":87,"componentType":5126,"count":6,"max":[0,0,0,1],"min":[0,0,-0.537299633026123,0.8433914184570312],"type":"VEC4"},{"bufferView":88,"componentType":5126,"count":5,"max":[0.708329975605011],"min":[0],"type":"SCALAR"},{"bufferView":89,"componentType":5126,"count":5,"max":[0,0,0,1],"min":[0,0,-0.9238795042037964,0.3826834261417389],"type":"VEC4"},{"bufferView":90,"componentType":5126,"count":3,"max":[0.708329975605011],"min":[0],"type":"SCALAR"},{"bufferView":91,"componentType":5126,"count":3,"max":[9.630949974060059,2,-12.704170227050781],"min":[7.630949974060059,0,-12.704170227050781],"type":"VEC3"}],"materials":[{"pbrMetallicRoughness":{"metallicFactor":0,"roughnessFactor":1},"alphaMode":"MASK","alphaCutoff":0.05,"doubleSided":true}],"meshes":[{"primitives":[{"mode":4,"attributes":{"POSITION":0,"NORMAL":1,"TEXCOORD_0":2},"indices":3,"material":0}]},{"primitives":[{"mode":4,"attributes":{"POSITION":4,"NORMAL":5,"TEXCOORD_0":6},"indices":7,"material":0}]},{"primitives":[{"mode":4,"attributes":{"POSITION":8,"NORMAL":9,"TEXCOORD_0":10},"indices":11,"material":0}]},{"primitives":[{"mode":4,"attributes":{"POSITION":12,"NORMAL":13,"TEXCOORD_0":14},"indices":15,"material":0}]},{"primitives":[{"mode":4,"attributes":{"POSITION":16,"NORMAL":17,"TEXCOORD_0":18},"indices":19,"material":0}]},{"primitives":[{"mode":4,"attributes":{"POSITION":20,"NORMAL":21,"TEXCOORD_0":22},"indices":23,"material":0}]},{"primitives":[{"mode":4,"attributes":{"POSITION":24,"NORMAL":25,"TEXCOORD_0":26},"indices":27,"material":0}]},{"primitives":[{"mode":4,"attributes":{"POSITION":28,"NORMAL":29,"TEXCOORD_0":30},"indices":31,"material":0}]},{"primitives":[{"mode":4,"attributes":{"POSITION":32,"NORMAL":33,"TEXCOORD_0":34},"indices":35,"material":0}]},{"primitives":[{"mode":4,"attributes":{"POSITION":36,"NORMAL":37,"TEXCOORD_0":38},"indices":39,"material":0}]},{"primitives":[{"mode":4,"attributes":{"POSITION":40,"NORMAL":41,"TEXCOORD_0":42},"indices":43,"material":0}]},{"primitives":[{"mode":4,"attributes":{"POSITION":44,"NORMAL":45,"TEXCOORD_0":46},"indices":47,"material":0}]},{"primitives":[{"mode":4,"attributes":{"POSITION":48,"NORMAL":49,"TEXCOORD_0":50},"indices":51,"material":0}]},{"primitives":[{"mode":4,"attributes":{"POSITION":52,"NORMAL":53,"TEXCOORD_0":54},"indices":55,"material":0}]},{"primitives":[{"mode":4,"attributes":{"POSITION":56,"NORMAL":57,"TEXCOORD_0":58},"indices":59,"material":0}]}],"animations":[{"name":"pack-open","samplers":[{"input":60,"output":61,"interpolation":"LINEAR"},{"input":62,"output":63,"interpolation":"LINEAR"},{"input":64,"output":65,"interpolation":"LINEAR"},{"input":66,"output":67,"interpolation":"LINEAR"},{"input":68,"output":69,"interpolation":"LINEAR"},{"input":70,"output":71,"interpolation":"LINEAR"},{"input":72,"output":73,"interpolation":"LINEAR"},{"input":74,"output":75,"interpolation":"LINEAR"},{"input":76,"output":77,"interpolation":"LINEAR"},{"input":78,"output":79,"interpolation":"LINEAR"},{"input":80,"output":81,"interpolation":"LINEAR"},{"input":82,"output":83,"interpolation":"LINEAR"},{"input":84,"output":85,"interpolation":"LINEAR"},{"input":86,"output":87,"interpolation":"LINEAR"},{"input":88,"output":89,"interpolation":"LINEAR"},{"input":90,"output":91,"interpolation":"LINEAR"}],"channels":[{"sampler":0,"target":{"node":1,"path":"rotation"}},{"sampler":1,"target":{"node":3,"path":"rotation"}},{"sampler":2,"target":{"node":5,"path":"rotation"}},{"sampler":3,"target":{"node":7,"path":"rotation"}},{"sampler":4,"target":{"node":9,"path":"rotation"}},{"sampler":5,"target":{"node":11,"path":"rotation"}},{"sampler":6,"target":{"node":13,"path":"rotation"}},{"sampler":7,"target":{"node":15,"path":"rotation"}},{"sampler":8,"target":{"node":17,"path":"rotation"}},{"sampler":9,"target":{"node":19,"path":"rotation"}},{"sampler":10,"target":{"node":21,"path":"rotation"}},{"sampler":11,"target":{"node":23,"path":"rotation"}},{"sampler":12,"target":{"node":23,"path":"translation"}},{"sampler":13,"target":{"node":25,"path":"rotation"}},{"sampler":14,"target":{"node":27,"path":"rotation"}},{"sampler":15,"target":{"node":27,"path":"translation"}}]}]}