{"asset":{"version":"2.0","generator":"Blockbench 5.0.7 glTF exporter"},"scenes":[{"nodes":[2],"name":"blockbench_export"}],"scene":0,"nodes":[{"translation":[0,0.375,0],"name":"bone2"},{"rotation":[0.6532814824381868,-0.2705980500730979,0.2705980500730989,0.6532814824381897],"translation":[0.25,0,-0.25],"name":"bone","children":[0]},{"name":"armature","mesh":0,"children":[1],"skin":0}],"bufferViews":[{"buffer":0,"byteOffset":0,"byteLength":48,"target":34962,"byteStride":12},{"buffer":0,"byteOffset":48,"byteLength":48,"target":34962,"byteStride":12},{"buffer":0,"byteOffset":96,"byteLength":32,"target":34962,"byteStride":8},{"buffer":0,"byteOffset":128,"byteLength":32,"target":34962,"byteStride":8},{"buffer":0,"byteOffset":160,"byteLength":64,"target":34962,"byteStride":16},{"buffer":0,"byteOffset":224,"byteLength":12,"target":34963},{"buffer":0,"byteOffset":236,"byteLength":128},{"buffer":0,"byteOffset":364,"byteLength":8},{"buffer":0,"byteOffset":372,"byteLength":32},{"buffer":0,"byteOffset":404,"byteLength":8},{"buffer":0,"byteOffset":412,"byteLength":32}],"buffers":[{"byteLength":444,"uri":"data:application/octet-stream;base64,"}],"accessors":[{"bufferView":0,"componentType":5126,"count":4,"max":[0.25,0,0.25],"min":[-0.25,0,-0.25],"type":"VEC3"},{"bufferView":1,"componentType":5126,"count":4,"max":[0,1,0],"min":[0,1,0],"type":"VEC3"},{"bufferView":2,"componentType":5126,"count":4,"max":[0.5,0.5],"min":[0,0],"type":"VEC2"},{"bufferView":3,"componentType":5123,"count":4,"max":[1,1,0,0],"min":[0,0,0,0],"type":"VEC4"},{"bufferView":4,"componentType":5126,"count":4,"max":[1,0.46666666865348816,0,0],"min":[0.5333333611488342,0,0,0],"type":"VEC4"},{"bufferView":5,"componentType":5123,"count":6,"max":[3],"min":[0],"type":"SCALAR"},{"bufferView":6,"componentType":5126,"count":2,"max":[0.7071067690849304,-0.7071067690849304,-2.747661854934051e-16,0,2.8654186516623896e-15,3.2579417662330313e-15,-1,0,0.7071067690849304,0.7071067690849304,4.278501906468347e-15,0,-7.28583859910259e-17,0.3535533845424652,1.1383169899032135e-15,1],"min":[0.7071067690849304,-0.7071067690849304,-2.747661854934051e-16,0,2.8654186516623896e-15,3.2579417662330313e-15,-1,0,0.7071067690849304,0.7071067690849304,4.278501906468347e-15,0,-1.1102230246251565e-16,-0.021446609869599342,1.1383169899032135e-15,1],"type":"MAT4"},{"bufferView":7,"componentType":5126,"count":2,"max":[2],"min":[1.2083333730697632],"type":"SCALAR"},{"bufferView":8,"componentType":5126,"count":2,"max":[0.6532815098762512,-0.27059805393218994,0.27059805393218994,0.8535534143447876],"min":[0.3535533845424652,-0.3535533845424652,0.1464466154575348,0.6532815098762512],"type":"VEC4"},{"bufferView":9,"componentType":5126,"count":2,"max":[0.5833333134651184],"min":[0],"type":"SCALAR"},{"bufferView":10,"componentType":5126,"count":2,"max":[0,0,0,1],"min":[-0.3826834261417389,0,0,0.9238795042037964],"type":"VEC4"}],"materials":[{"pbrMetallicRoughness":{"metallicFactor":0,"roughnessFactor":1},"alphaMode":"MASK","alphaCutoff":0.05,"doubleSided":true}],"meshes":[{"primitives":[{"mode":4,"attributes":{"POSITION":0,"NORMAL":1,"TEXCOORD_0":2,"JOINTS_0":3,"WEIGHTS_0":4},"indices":5,"material":0}]}],"skins":[{"inverseBindMatrices":6,"joints":[1,0],"skeleton":1}],"animations":[{"name":"animation","samplers":[{"input":7,"output":8,"interpolation":"LINEAR"},{"input":9,"output":10,"interpolation":"LINEAR"}],"channels":[{"sampler":0,"target":{"node":1,"path":"rotation"}},{"sampler":1,"target":{"node":0,"path":"rotation"}}]}]}